<?xml version="1.0" encoding="UTF-8"?>
<svg id="Layer_1" data-name="Layer 1" xmlns="http://www.w3.org/2000/svg" viewBox="0 0 1348.16 1572.42">
  <defs>
    <style>
      .cls-1 {
        fill: #8dbe40;
      }

      .cls-1, .cls-2, .cls-3 {
        stroke-width: 0px;
      }

      .cls-2 {
        fill: #1a3e1a;
      }

      .cls-3 {
        fill: #376a25;
      }
    </style>
  </defs>
  <path class="cls-1" d="M840.07,1486.01l305.69-109.36c76.33-27.3,128.31-108.4,128.31-200.15v-146.69s-305.69,109.36-305.69,109.36c-76.33,27.3-128.31,108.4-128.31,200.15v146.69Z"/>
  <path class="cls-1" d="M508.1,1486.01l-305.69-109.36c-76.33-27.3-128.31-108.4-128.31-200.15v-146.69s305.69,109.36,305.69,109.36c76.33,27.3,128.31,108.4,128.31,200.15v146.69Z"/>
  <path class="cls-3" d="M852.33,818.91c-78.09,26.64-131.27,105.76-131.27,195.28v143.12l.11-.04v227.52c0,23.93-17.15,45.28-40.88,48.33-28.71,3.69-53.28-18.68-53.28-46.69v-229.16l.1.04v-143.12c0-89.52-53.19-168.64-131.27-195.28l-312.75-106.7v143.12c0,89.52,53.19,168.64,131.27,195.28l93.37,31.85c102.13,34.84,170.79,130.8,170.79,238.71v62.46c0,49.74,36.84,93.27,86.35,97.94,56.82,5.35,104.8-39.4,104.8-95.14v-65.26c0-107.91,68.65-203.87,170.79-238.71l93.36-31.85c78.09-26.64,131.27-105.76,131.27-195.28v-143.12l-312.75,106.7Z"/>
  <path class="cls-2" d="M724.3,797.11l234.39-79.96c58.52-19.96,98.38-79.26,98.38-146.35v-107.26s-234.39,79.96-234.39,79.96c-58.52,19.96-98.38,79.26-98.38,146.35v107.26Z"/>
  <path class="cls-2" d="M674.37,557.6l109.2-222.28c27.26-55.5,13.52-125.61-33.92-173.05l-75.85-75.85-109.2,222.28c-27.26,55.5-13.52,125.61,33.92,173.05l75.85,75.85Z"/>
  <path class="cls-2" d="M623.87,797.11l-234.39-79.96c-58.52-19.96-98.38-79.26-98.38-146.35v-107.26s234.39,79.96,234.39,79.96c58.52,19.96,98.38,79.26,98.38,146.35v107.26Z"/>
</svg>