<?xml version="1.0" encoding="UTF-8"?>
<svg id="Layer_1" data-name="Layer 1" xmlns="http://www.w3.org/2000/svg" viewBox="0 0 390.02 92.08">
  <defs>
    <style>
      .cls-1 {
        fill: #8bbe40;
      }

      .cls-1, .cls-2 {
        stroke-width: 0px;
      }

      .cls-2 {
        fill: #959595;
      }
    </style>
  </defs>
  <polygon class="cls-1" points="346.63 82.32 259.79 11.1 260.58 10.14 346.52 80.61 377.58 47.3 378.5 48.16 346.63 82.32"/>
  <polygon class="cls-2" points="390.02 24.79 388.77 24.79 388.77 1.25 365.22 1.25 365.22 0 390.02 0 390.02 24.79"/>
  <polygon class="cls-2" points="390.02 92.08 365.22 92.08 365.22 90.83 388.77 90.83 388.77 67.29 390.02 67.29 390.02 92.08"/>
  <polygon class="cls-2" points="323.7 92.08 298.91 92.08 298.91 67.29 300.16 67.29 300.16 90.83 323.7 90.83 323.7 92.08"/>
  <polygon class="cls-2" points="300.16 24.79 298.91 24.79 298.91 0 323.7 0 323.7 1.25 300.16 1.25 300.16 24.79"/>
  <g>
    <polygon class="cls-2" points="229.82 92.08 205.03 92.08 205.03 67.29 206.28 67.29 206.28 90.83 229.82 90.83 229.82 92.08"/>
    <polygon class="cls-2" points="206.28 24.79 205.03 24.79 205.03 0 229.82 0 229.82 1.25 206.28 1.25 206.28 24.79"/>
  </g>
  <g>
    <polygon class="cls-1" points="127.31 92.08 102.51 92.08 102.51 67.29 103.76 67.29 103.76 90.83 127.31 90.83 127.31 92.08"/>
    <polygon class="cls-1" points="103.76 24.79 102.51 24.79 102.51 0 127.31 0 127.31 1.25 103.76 1.25 103.76 24.79"/>
  </g>
  <g>
    <polygon class="cls-2" points="24.8 92.08 0 92.08 0 67.29 1.25 67.29 1.25 90.83 24.8 90.83 24.8 92.08"/>
    <polygon class="cls-2" points="1.25 24.79 0 24.79 0 0 24.8 0 24.8 1.25 1.25 1.25 1.25 24.79"/>
  </g>
</svg>