<?xml version="1.0" encoding="UTF-8"?>
<svg id="Layer_1" data-name="Layer 1" xmlns="http://www.w3.org/2000/svg" viewBox="0 0 390.52 92.58">
  <defs>
    <style>
      .cls-1 {
        fill: #8bbe40;
      }

      .cls-1, .cls-2 {
        stroke-width: 0px;
      }

      .cls-2 {
        fill: #959595;
      }
    </style>
  </defs>
  <path class="cls-1" d="M172.93,82.67c-20.06,0-36.38-16.32-36.38-36.38s16.32-36.38,36.38-36.38c3.76,0,7.46.57,11.01,1.7l-.53,1.67c-3.38-1.07-6.9-1.61-10.48-1.61-19.09,0-34.63,15.53-34.63,34.63s15.53,34.63,34.63,34.63,34.63-15.53,34.63-34.63c0-9.79-4.17-19.17-11.45-25.73l1.17-1.3c7.65,6.89,12.03,16.74,12.03,27.03,0,20.06-16.32,36.38-36.38,36.38Z"/>
  <path class="cls-2" d="M107.13,92.58c-25.53,0-46.29-20.77-46.29-46.29S81.61,0,107.13,0v1.75c-24.56,0-44.54,19.98-44.54,44.54s19.98,44.54,44.54,44.54v1.75Z"/>
  <path class="cls-2" d="M46.29,92.58C20.77,92.58,0,71.82,0,46.29S20.77,0,46.29,0v1.75C21.73,1.75,1.75,21.73,1.75,46.29s19.98,44.54,44.54,44.54v1.75Z"/>
  <path class="cls-2" d="M283.38,92.58v-1.75c24.56,0,44.54-19.98,44.54-44.54S307.94,1.75,283.38,1.75V0c25.53,0,46.29,20.77,46.29,46.29s-20.77,46.29-46.29,46.29Z"/>
  <path class="cls-2" d="M344.22,92.58v-1.75c24.56,0,44.54-19.98,44.54-44.54S368.78,1.75,344.22,1.75V0c25.53,0,46.29,20.77,46.29,46.29s-20.77,46.29-46.29,46.29Z"/>
  <path class="cls-1" d="M208.44,82.67c-3.76,0-7.46-.57-11.01-1.7l.53-1.67c3.38,1.07,6.9,1.61,10.48,1.61,19.09,0,34.63-15.53,34.63-34.63s-15.53-34.63-34.63-34.63-34.63,15.53-34.63,34.63c0,9.79,4.17,19.17,11.45,25.73l-1.17,1.3c-7.65-6.89-12.03-16.74-12.03-27.03,0-20.06,16.32-36.38,36.38-36.38s36.38,16.32,36.38,36.38-16.32,36.38-36.38,36.38Z"/>
</svg>