<?xml version="1.0" encoding="UTF-8"?>
<svg id="Layer_1" data-name="Layer 1" xmlns="http://www.w3.org/2000/svg" viewBox="0 0 391.91 89.23">
  <defs>
    <style>
      .cls-1 {
        fill: #8bbe40;
      }

      .cls-1, .cls-2 {
        stroke-width: 0px;
      }

      .cls-2 {
        fill: #959595;
      }
    </style>
  </defs>
  <g>
    <path class="cls-2" d="M178.22,85.46c-8.28-3.65-15.18-9.65-19.97-17.35-1.85-2.98-3.34-6.18-4.44-9.5l1.19-.39c1.06,3.23,2.52,6.33,4.31,9.23,4.65,7.49,11.36,13.32,19.41,16.87l-.5,1.14Z"/>
    <path class="cls-1" d="M196.18,89.23v-1.25c23.91,0,43.36-19.45,43.36-43.36S220.09,1.25,196.18,1.25s-43.36,19.45-43.36,43.36h-1.25c0-24.6,20.01-44.61,44.61-44.61s44.61,20.01,44.61,44.61-20.01,44.61-44.61,44.61Z"/>
    <path class="cls-2" d="M196.18,75.02c-16.77,0-30.41-13.64-30.41-30.41s13.64-30.41,30.41-30.41v1.25c-16.08,0-29.16,13.08-29.16,29.16s13.08,29.16,29.16,29.16,29.16-13.08,29.16-29.16h1.25c0,16.77-13.64,30.41-30.41,30.41Z"/>
    <path class="cls-1" d="M196.19,59.84l-12.5-12.5c-2.8-2.8-3.86-6.16-2.98-9.46.83-3.09,3.36-5.63,6.46-6.46,3.13-.84,6.31.07,9.02,2.55,4.76-4.38,10.09-3.21,13.11-.19,1.7,1.7,2.64,3.91,2.67,6.24.03,2.61-1.11,5.14-3.28,7.32l-12.5,12.5ZM189.44,32.37c-.65,0-1.3.08-1.94.26-2.67.71-4.86,2.9-5.57,5.57-.76,2.85.18,5.78,2.65,8.25l11.61,11.62,11.62-11.62c1.93-1.93,2.94-4.15,2.92-6.42-.02-2-.84-3.91-2.3-5.37-2.69-2.69-7.53-3.64-11.79.62l-.44.44-.44-.44c-1.91-1.91-4.1-2.91-6.31-2.91Z"/>
  </g>
  <polygon class="cls-2" points="391.91 68.95 288.82 68.95 288.82 67.7 389.25 67.7 370.12 44.61 389.25 21.52 288.82 21.52 288.82 20.27 391.91 20.27 371.75 44.61 391.91 68.95"/>
  <rect class="cls-1" x="255.12" y="43.99" width="83.74" height="1.25"/>
  <polygon class="cls-2" points="103.09 68.95 0 68.95 20.17 44.61 0 20.27 103.09 20.27 103.09 21.52 2.66 21.52 21.79 44.61 2.66 67.7 103.09 67.7 103.09 68.95"/>
  <rect class="cls-1" x="53.05" y="43.99" width="83.74" height="1.25"/>
</svg>