<?xml version="1.0" encoding="UTF-8"?>
<svg id="Layer_1" data-name="Layer 1" xmlns="http://www.w3.org/2000/svg" viewBox="0 0 380.68 92.82">
  <defs>
    <style>
      .cls-1 {
        fill: #8bbe40;
      }

      .cls-1, .cls-2 {
        stroke-width: 0px;
      }

      .cls-2 {
        fill: #959595;
      }
    </style>
  </defs>
  <polygon class="cls-2" points="37.06 67.63 48.8 61.46 60.53 67.63 58.29 54.56 67.79 45.31 54.67 43.4 48.8 31.52 44.92 39.38 45.99 39.91 48.8 34.21 53.87 44.5 65.22 46.15 57.01 54.15 58.95 65.45 48.8 60.11 38.65 65.45 40.59 54.15 32.38 46.15 39.04 45.18 38.86 44 29.81 45.31 39.3 54.56 37.06 67.63"/>
  <path class="cls-1" d="M24.4,59.24L0,35.45l33.72-4.9L48.8,0l15.08,30.55,33.72,4.9-24.4,23.78,5.76,33.58-30.16-15.86-30.16,15.86,5.76-33.58ZM63.05,31.7L48.8,2.82l-14.25,28.87-31.86,4.63,23.06,22.47-5.44,31.73,28.5-14.98,28.5,14.98-5.44-31.73,23.06-22.47-31.86-4.63Z"/>
  <polygon class="cls-1" points="370.75 91.78 371.99 91.57 369.58 77.53 380.68 66.71 365.34 64.48 359.03 51.71 357.91 52.26 364.51 65.62 378 67.58 368.24 77.1 370.75 91.78"/>
  <polygon class="cls-2" points="305.67 91.78 306.9 91.57 303.45 71.44 318.98 56.29 297.51 53.17 288.47 34.85 287.35 35.4 296.68 54.31 316.3 57.16 302.1 71 305.67 91.78"/>
  <polygon class="cls-1" points="231.76 91.78 232.99 91.57 228.49 65.34 248.46 45.87 220.86 41.86 209.08 17.99 207.96 18.55 220.03 43 245.77 46.75 227.15 64.9 231.76 91.78"/>
  <polygon class="cls-2" points="148.99 91.78 150.22 91.57 144.67 59.24 169.07 35.45 135.35 30.55 120.83 1.14 119.71 1.69 134.52 31.7 166.39 36.33 143.33 58.8 148.99 91.78"/>
</svg>