<?xml version="1.0" encoding="UTF-8"?>
<svg id="Layer_1" data-name="Layer 1" xmlns="http://www.w3.org/2000/svg" viewBox="0 0 388.51 90.83">
  <defs>
    <style>
      .cls-1 {
        fill: #8bbe40;
      }

      .cls-1, .cls-2 {
        stroke-width: 0px;
      }

      .cls-2 {
        fill: #959595;
      }
    </style>
  </defs>
  <path class="cls-1" d="M354.65,90.83h-21.89v-10c0-1.39-.86-2.64-2.18-3.17-2.94-1.2-5.71-2.8-8.23-4.76-1.13-.88-2.64-1-3.85-.3l-8.66,5-10.94-18.96,8.66-5c1.21-.7,1.86-2.06,1.66-3.48-.22-1.57-.33-3.17-.33-4.75s.11-3.18.33-4.75c.2-1.42-.46-2.79-1.66-3.48l-8.66-5,10.94-18.96,8.66,5c1.2.7,2.71.58,3.84-.3,2.52-1.96,5.28-3.56,8.23-4.76,1.32-.54,2.18-1.79,2.18-3.18V0h21.89v10c0,1.39.86,2.64,2.18,3.18,2.94,1.2,5.71,2.8,8.23,4.76,1.13.88,2.64,1,3.85.3l8.66-5,10.94,18.96-8.66,5c-1.2.7-1.86,2.06-1.66,3.48.22,1.58.33,3.17.33,4.75s-.11,3.17-.33,4.75c-.2,1.42.46,2.79,1.66,3.48l8.66,5-10.94,18.96-8.66-5c-1.2-.69-2.71-.58-3.85.3-2.52,1.96-5.29,3.56-8.23,4.76-1.32.54-2.18,1.79-2.18,3.18v10ZM334.01,89.58h19.39v-8.75c0-1.9,1.16-3.6,2.96-4.33,2.84-1.16,5.5-2.7,7.93-4.59,1.54-1.19,3.59-1.35,5.24-.4l7.58,4.38,9.69-16.79-7.58-4.38c-1.65-.95-2.54-2.81-2.27-4.73.21-1.52.32-3.06.32-4.58s-.11-3.06-.32-4.58c-.27-1.93.63-3.78,2.27-4.74l7.58-4.38-9.69-16.79-7.58,4.38c-1.65.95-3.7.79-5.24-.4-2.43-1.89-5.1-3.43-7.93-4.59-1.8-.73-2.96-2.43-2.96-4.33V1.25h-19.39v8.75c0,1.9-1.16,3.6-2.96,4.33-2.84,1.16-5.51,2.7-7.93,4.59-1.53,1.19-3.59,1.35-5.24.4l-7.58-4.38-9.69,16.79,7.58,4.38c1.65.95,2.54,2.81,2.27,4.73-.21,1.51-.32,3.05-.32,4.58s.11,3.06.32,4.58c.27,1.93-.63,3.78-2.27,4.74l-7.58,4.38,9.69,16.79,7.58-4.38c1.65-.95,3.71-.8,5.24.4,2.43,1.89,5.1,3.43,7.93,4.58,1.8.73,2.96,2.43,2.96,4.33v8.75Z"/>
  <path class="cls-2" d="M343.71,61.85c-9.06,0-16.44-7.37-16.44-16.44s7.37-16.44,16.44-16.44c2.49,0,4.88.54,7.11,1.61l-.54,1.13c-2.06-.99-4.27-1.49-6.57-1.49-8.37,0-15.19,6.81-15.19,15.19s6.81,15.19,15.19,15.19,15.19-6.81,15.19-15.19c0-2.26-.49-4.44-1.44-6.47l1.13-.53c1.04,2.2,1.56,4.56,1.56,7.01,0,9.06-7.37,16.44-16.44,16.44Z"/>
  <rect class="cls-2" x="128.3" y="89.58" width="204.5" height="1.25"/>
  <rect class="cls-2" y="44.79" width="204.5" height="1.25"/>
  <rect class="cls-2" x="128.3" width="204.5" height="1.25"/>
</svg>