<?xml version="1.0" encoding="UTF-8"?>
<svg id="Layer_1" data-name="Layer 1" xmlns="http://www.w3.org/2000/svg" viewBox="0 0 390.02 91.18">
  <defs>
    <style>
      .cls-1 {
        fill: #8bbe40;
      }

      .cls-1, .cls-2 {
        stroke-width: 0px;
      }

      .cls-2 {
        fill: #959595;
      }
    </style>
  </defs>
  <path class="cls-2" d="M195.01,72.9l-.22-.08c-13.76-5.13-23.01-18.45-23.01-33.14v-13.77l23.23-7.62.19.06,23.04,7.55v13.77c0,14.69-9.25,28.01-23.01,33.14l-.22.08ZM173.03,26.81v12.87c0,14.09,8.82,26.88,21.98,31.88,13.16-5.01,21.98-17.79,21.98-31.88v-12.87l-21.98-7.21-21.98,7.21Z"/>
  <path class="cls-1" d="M195.01,91.18l-.22-.08c-23.04-8.59-38.53-30.88-38.53-55.48V12.71L195.01,0l.19.06,38.55,12.64v22.92c0,24.59-15.48,46.89-38.53,55.48l-.22.08ZM157.51,13.61v22.01c0,24,15.06,45.76,37.5,54.22,22.44-8.47,37.5-30.23,37.5-54.22V13.61L195.01,1.32l-37.5,12.3Z"/>
  <g>
    <path class="cls-2" d="M146.34,91.1c-23.04-8.59-38.53-30.88-38.53-55.48h1.25c0,24.07,15.16,45.9,37.71,54.31l-.44,1.17Z"/>
    <path class="cls-2" d="M81.29,91.1c-16.38-6.11-27.38-21.95-27.38-39.43h1.25c0,16.96,10.68,32.33,26.57,38.26l-.44,1.17Z"/>
    <path class="cls-2" d="M16.24,91.1C6.52,87.48,0,78.09,0,67.72h1.25c0,9.84,6.2,18.77,15.42,22.21l-.44,1.17Z"/>
  </g>
  <g>
    <path class="cls-2" d="M243.67,91.1l-.44-1.17c22.56-8.41,37.71-30.23,37.71-54.31h1.25c0,24.59-15.48,46.89-38.53,55.48Z"/>
    <path class="cls-2" d="M308.73,91.1l-.44-1.17c15.89-5.92,26.57-21.3,26.57-38.26h1.25c0,17.48-11,33.32-27.38,39.43Z"/>
    <path class="cls-2" d="M373.78,91.1l-.44-1.17c9.23-3.44,15.42-12.36,15.42-22.21h1.25c0,10.36-6.52,19.76-16.24,23.38Z"/>
  </g>
</svg>