<?xml version="1.0" encoding="UTF-8"?>
<svg id="Layer_1" data-name="Layer 1" xmlns="http://www.w3.org/2000/svg" viewBox="0 0 1143.73 715.96">
  <defs>
    <style>
      .cls-1 {
        fill: #386b34;
      }

      .cls-1, .cls-2, .cls-3 {
        stroke-width: 0px;
      }

      .cls-2 {
        fill: #1e3e1e;
      }

      .cls-3 {
        fill: #8bbd41;
      }
    </style>
  </defs>
  <g>
    <path class="cls-3" d="M401.2,695.69l147.52-52.77c36.83-13.18,61.92-52.31,61.92-96.59v-70.79s-147.52,52.77-147.52,52.77c-36.83,13.18-61.92,52.31-61.92,96.59v70.79Z"/>
    <path class="cls-3" d="M241,695.69l-147.52-52.77c-36.83-13.18-61.92-52.31-61.92-96.59v-70.79s147.52,52.77,147.52,52.77c36.83,13.18,61.92,52.31,61.92,96.59v70.79Z"/>
    <path class="cls-1" d="M407.12,373.76c-37.68,12.86-63.35,51.04-63.35,94.24v69.07l.05-.02v109.8c0,11.55-8.28,21.85-19.73,23.32-13.86,1.78-25.71-9.01-25.71-22.53v-110.59l.05.02v-69.07c0-43.2-25.67-81.38-63.35-94.24l-150.93-51.49v69.07c0,43.2,25.67,81.38,63.35,94.24l45.06,15.37c49.29,16.81,82.42,63.12,82.42,115.2v30.14c0,24,17.78,45.01,41.67,47.26,27.42,2.58,50.57-19.02,50.57-45.91v-31.49c0-52.08,33.13-98.38,82.42-115.2l45.06-15.37c37.68-12.86,63.35-51.04,63.35-94.24v-69.07l-150.93,51.49Z"/>
    <path class="cls-2" d="M345.33,363.24l113.11-38.59c28.24-9.63,47.48-38.25,47.48-70.63v-51.76s-113.11,38.59-113.11,38.59c-28.24,9.63-47.48,38.25-47.48,70.63v51.76Z"/>
    <path class="cls-2" d="M321.23,247.65l52.7-107.27c13.16-26.78,6.53-60.62-16.37-83.51l-36.6-36.6-52.7,107.27c-13.16,26.78-6.53,60.62,16.37,83.51l36.6,36.6Z"/>
    <path class="cls-2" d="M296.86,363.24l-113.11-38.59c-28.24-9.63-47.48-38.25-47.48-70.63v-51.76s113.11,38.59,113.11,38.59c28.24,9.63,47.48,38.25,47.48,70.63v51.76Z"/>
  </g>
  <g>
    <path class="cls-2" d="M828.21,106.4c1.03-1.03,2.07-1.55,3.1-1.55h34.76c1.24,0,2.22.52,2.95,1.55.72,1.04,1.09,2.17,1.09,3.42v208.27c0,1.24-.37,2.38-1.09,3.41-.73,1.03-1.71,1.55-2.95,1.55h-34.76c-1.04,0-2.07-.52-3.1-1.55-1.04-1.03-1.55-2.17-1.55-3.41v-49.97h-43.45v49.97c0,1.24-.52,2.38-1.55,3.41-1.04,1.03-2.07,1.55-3.1,1.55h-34.76c-1.24,0-2.23-.52-2.95-1.55-.73-1.03-1.09-2.17-1.09-3.41V109.81c0-1.24.36-2.38,1.09-3.42.72-1.03,1.71-1.55,2.95-1.55h34.76c1.03,0,2.07.52,3.1,1.55,1.03,1.04,1.55,2.17,1.55,3.42v118.26h43.45v-118.26c0-1.24.51-2.38,1.55-3.42Z"/>
    <path class="cls-2" d="M1112.18,109.19v208.58c0,1.24-.41,2.33-1.24,3.26-.83.93-2.07,1.4-3.72,1.4h-33.83c-1.66,0-2.85-.47-3.57-1.4-.73-.93-1.09-2.02-1.09-3.26v-137.81c-14.27,8.9-28.66,13.34-43.14,13.34s-28.76-4.45-44.07-13.34v137.81c0,1.24-.36,2.33-1.09,3.26-.73.93-1.71,1.4-2.95,1.4h-34.45c-1.24,0-2.38-.51-3.42-1.55-1.04-1.03-1.55-2.07-1.55-3.1V109.19c0-1.24.51-2.22,1.55-2.95,1.03-.72,2.17-1.09,3.42-1.09h34.45c2.48,0,4.04,1.35,4.66,4.03,1.03,10.14,5.28,19.04,12.73,26.69,8.48,8.49,18.72,12.73,30.73,12.73,11.17,0,20.9-3.83,29.18-11.49,8.07-7.86,12.72-17.17,13.96-27.93,0-2.68,1.34-4.03,4.04-4.03h34.45c3.3,0,4.96,1.35,4.96,4.03Z"/>
    <path class="cls-2" d="M868.71,391.83c.93.73,1.4,1.71,1.4,2.95v31.35c0,1.24-.47,2.38-1.4,3.41-.93,1.04-2.02,1.55-3.26,1.55h-39.42v172.26c0,1.24-.37,2.33-1.09,3.26-.73.93-1.61,1.4-2.64,1.4h-34.76c-1.04,0-2.07-.51-3.1-1.55-1.04-1.03-1.55-2.07-1.55-3.1v-172.26h-38.49c-3.1,0-4.66-1.65-4.66-4.96v-31.35c0-2.69,1.55-4.03,4.66-4.03h121.05c1.24,0,2.33.36,3.26,1.09Z"/>
    <path class="cls-2" d="M960.4,452.51c0-18.62,6.52-34.45,19.55-47.49,5.79-5.79,12.62-10.19,20.48-13.19,7.86-3,16.24-4.5,25.14-4.5s17.07,1.71,25.14,5.12c8.07,3.42,15.1,8.13,21.1,14.12,7.65,7.66,13.04,18.73,16.14,33.21v.93c0,1.24-.41,2.28-1.24,3.1-.82.83-1.76,1.35-2.79,1.55l-32.59,4.97h-.62c-1.04,0-1.97-.36-2.79-1.09-.83-.72-1.45-1.6-1.86-2.64-1.04-4.55-3.57-8.48-7.6-11.79-4.04-3.31-8.54-4.97-13.5-4.97-6.42,0-11.54,1.61-15.37,4.81-3.83,3.21-5.74,8.12-5.74,14.75,0,7.03,1.71,12.26,5.12,15.67,3.42,3.41,9.57,7.09,18.47,11.01l26.38,11.8c24,10.76,36,30.1,36,58.04,0,18.62-6.51,34.45-19.55,47.49-5.8,5.8-12.62,10.2-20.49,13.19-7.87,3-16.25,4.5-25.14,4.5s-17.07-1.71-25.14-5.12c-8.07-3.41-15.11-8.12-21.1-14.12-8.9-8.89-14.8-19.96-17.69-33.21v-.93c0-1.24.41-2.27,1.24-3.1.82-.82,1.76-1.34,2.79-1.55l32.9-4.96h.62c1.03,0,1.96.36,2.79,1.09.83.73,1.45,1.6,1.86,2.64,1.03,4.56,3.52,8.33,7.45,11.33,3.93,3,8.48,4.5,13.66,4.5,6.41,0,11.53-1.55,15.36-4.66,3.83-3.1,5.74-7.76,5.74-13.97,0-7.45-1.71-12.93-5.12-16.45-3.41-3.52-9.57-7.24-18.47-11.17l-26.38-11.49c-23.18-10.13-34.76-29.27-34.76-57.42Z"/>
  </g>
</svg>