<svg width="90" height="52" viewBox="0 0 90 52" fill="none" xmlns="http://www.w3.org/2000/svg">
<path d="M70.858 51.3486H58.483V45.6954C58.483 44.9096 57.9968 44.2029 57.2506 43.9033C55.5886 43.2249 54.0226 42.3204 52.598 41.2123C51.9592 40.7148 51.1055 40.647 50.4215 41.0427L45.5257 43.8694L39.3411 33.1508L44.2368 30.3241C44.9208 29.9284 45.2883 29.1596 45.1752 28.3568C45.0509 27.4692 44.9887 26.5647 44.9887 25.6715C44.9887 24.7783 45.0509 23.8737 45.1752 22.9862C45.2883 22.1834 44.9152 21.4089 44.2368 21.0188L39.3411 18.1922L45.5257 7.47362L50.4215 10.3003C51.0999 10.696 51.9535 10.6281 52.5923 10.1307C54.0169 9.02261 55.5773 8.11809 57.245 7.4397C57.9912 7.13442 58.4774 6.42776 58.4774 5.64196V0H70.8524V5.65327C70.8524 6.43907 71.3386 7.14573 72.0848 7.45101C73.7469 8.1294 75.3128 9.03392 76.7374 10.142C77.3762 10.6394 78.2299 10.7073 78.9139 10.3116L83.8097 7.48493L89.9943 18.2035L85.0986 21.0302C84.4202 21.4259 84.0471 22.1947 84.1602 22.9975C84.2845 23.8907 84.3467 24.7896 84.3467 25.6828C84.3467 26.576 84.2845 27.4749 84.1602 28.3681C84.0471 29.1709 84.4202 29.9454 85.0986 30.3354L89.9943 33.1621L83.8097 43.8807L78.9139 41.054C78.2355 40.664 77.3819 40.7261 76.7374 41.2236C75.3128 42.3317 73.7469 43.2362 72.0848 43.9146C71.3386 44.2199 70.8524 44.9265 70.8524 45.7123V51.3656L70.858 51.3486ZM59.1897 50.642H70.1514V45.6954C70.1514 44.6212 70.8072 43.6602 71.8247 43.2475C73.4303 42.5917 74.934 41.7211 76.3078 40.6526C77.1784 39.9799 78.3373 39.8895 79.2701 40.4265L83.5553 42.9026L89.0333 33.4108L84.7481 30.9347C83.8153 30.3976 83.3122 29.3461 83.4648 28.2607C83.5835 27.4014 83.6457 26.5308 83.6457 25.6715C83.6457 24.8122 83.5835 23.9416 83.4648 23.0823C83.3122 21.9912 83.821 20.9454 84.7481 20.4026L89.0333 17.9265L83.5553 8.43467L79.2701 10.9108C78.3373 11.4479 77.1784 11.3574 76.3078 10.6847C74.934 9.61621 73.4246 8.7456 71.8247 8.08983C70.8072 7.67714 70.1514 6.71608 70.1514 5.64196V0.706658H59.1897V5.65327C59.1897 6.72739 58.5339 7.68844 57.5163 8.10113C55.9108 8.75691 54.4014 9.62751 53.0333 10.696C52.1683 11.3687 51.0038 11.4592 50.071 10.9221L45.7858 8.44598L40.3078 17.9378L44.5929 20.4139C45.5257 20.951 46.0289 22.0025 45.8762 23.0879C45.7575 23.9416 45.6953 24.8122 45.6953 25.6771C45.6953 26.5421 45.7575 27.407 45.8762 28.2663C46.0289 29.3574 45.5201 30.4033 44.5929 30.946L40.3078 33.4221L45.7858 42.914L50.071 40.4378C51.0038 39.9008 52.1683 39.9856 53.0333 40.6639C54.407 41.7324 55.9164 42.603 57.5163 43.2531C58.5339 43.6658 59.1897 44.6269 59.1897 45.701V50.6476V50.642Z" fill="#8CBE40"/>
<path d="M64.6735 34.9655C59.5516 34.9655 55.3795 30.799 55.3795 25.6715C55.3795 20.544 59.546 16.3776 64.6735 16.3776C66.0812 16.3776 67.4323 16.6828 68.693 17.2877L68.3877 17.9266C67.2231 17.3669 65.9737 17.0842 64.6735 17.0842C59.9417 17.0842 56.0862 20.9341 56.0862 25.6715C56.0862 30.409 59.9361 34.2588 64.6735 34.2588C69.4109 34.2588 73.2608 30.409 73.2608 25.6715C73.2608 24.3939 72.9838 23.1615 72.4467 22.0139L73.0855 21.7142C73.6735 22.958 73.9675 24.2921 73.9675 25.6772C73.9675 30.799 69.801 34.9712 64.6735 34.9712V34.9655Z" fill="#969696"/>
<path d="M58.5001 50.642H26.9436V51.3486H58.5001V50.642Z" fill="#969696"/>
<path d="M31.5565 25.321H0V26.0277H31.5565V25.321Z" fill="#969696"/>
<path d="M58.5001 0H26.9436V0.706658H58.5001V0Z" fill="#969696"/>
</svg>
